# xmcd
# 
# Track frame offsets:
#     150
#     26503
#     40953
#     56698
#     72094
#     88302
#     111814
#     128118
#     145433
#     157122
#     170101
#     180276
#     196721
#     214540
# 
# Disc length: 3096
# 
# Revision: 2
# Processed by: cddbd v1.5.2PL0 Copyright (c) Steve Scherf et al.
# Submitted via: fre:ac v1.0.31
# 
DISCID=c70c160e
DTITLE=Various Artist - From The 60s To The 70s - CD 3
DYEAR=1998
DGENRE=Pop
TTITLE0=Barry Ryan - Eloise
TTITLE1=Styx - Boat on the river
TTITLE2=Rubettes - Sugar baby love
TTITLE3=Santa Esmeralda starring Leroy Gomez - Don't let me be misunderstood and Esmeralda suite
TTITLE4=Dave Dee, Dozy, Beaky Mick and Tich - The legend of Xanadu
TTITLE5=Rod Stewart - Maggie May
TTITLE6=Free - Wishing well
TTITLE7=Status Quo - Down, down
TTITLE8=Troggs - Wild thing
TTITLE9=Lulu And The Luvers - Shout
TTITLE10=Lesley Gore - It's my party
TTITLE11=Diana Ross - Upside down
TTITLE12=Jackson Five - I'll be there
TTITLE13=Demis Roussos - Goodbye, my love, goodbye
EXTD=
EXTT0=
EXTT1=
EXTT2=
EXTT3=
EXTT4=
EXTT5=
EXTT6=
EXTT7=
EXTT8=
EXTT9=
EXTT10=
EXTT11=
EXTT12=
EXTT13=
PLAYORDER=
